<?xml version="1.0" encoding="UTF-8" standalone="no"?>
<!-- Created with Inkscape (http://www.inkscape.org/) -->

<svg
   version="1.1"
   id="svg1"
   width="973.59998"
   height="272"
   viewBox="0 0 973.59998 272"
   sodipodi:docname="LCATO logo.svg"
   inkscape:version="1.4.2 (f4327f4, 2025-05-13)"
   xmlns:inkscape="http://www.inkscape.org/namespaces/inkscape"
   xmlns:sodipodi="http://sodipodi.sourceforge.net/DTD/sodipodi-0.dtd"
   xmlns="http://www.w3.org/2000/svg"
   xmlns:svg="http://www.w3.org/2000/svg">
  <defs
     id="defs1" />
  <sodipodi:namedview
     id="namedview1"
     pagecolor="#ffffff"
     bordercolor="#000000"
     borderopacity="0.25"
     inkscape:showpageshadow="2"
     inkscape:pageopacity="0.0"
     inkscape:pagecheckerboard="true"
     inkscape:deskcolor="#d1d1d1"
     showgrid="false"
     inkscape:zoom="1.0167928"
     inkscape:cx="346.67828"
     inkscape:cy="218.8253"
     inkscape:window-width="1920"
     inkscape:window-height="1111"
     inkscape:window-x="-9"
     inkscape:window-y="-9"
     inkscape:window-maximized="1"
     inkscape:current-layer="g1" />
  <g
     inkscape:groupmode="layer"
     inkscape:label="Image"
     id="g1">
    <g
       id="g2"
       transform="translate(-2.0862856,-5.8514847)">
      <path
         style="fill:#6e6e6e;fill-opacity:1"
         d="m 339.04999,271.45351 c 0.5775,-0.2311 1.2675,-0.20268 1.53333,0.0632 0.26584,0.26583 -0.20666,0.45491 -1.05,0.42017 -0.93195,-0.0384 -1.12151,-0.22795 -0.48333,-0.48333 z m 360.79999,0 c 0.5775,-0.2311 1.2675,-0.20268 1.53334,0.0632 0.26583,0.26583 -0.20667,0.45491 -1.05,0.42017 -0.93196,-0.0384 -1.12152,-0.22795 -0.48334,-0.48333 z M 16,262.6 c 0,-0.33 0.865623,-0.6 1.923606,-0.6 1.057984,0 1.756738,0.27 1.552787,0.6 -0.203951,0.33 -1.069575,0.6 -1.923607,0.6 C 16.698753,263.2 16,262.93 16,262.6 Z m 23.199999,0.29331 c 0,-0.16869 0.72,-0.49498 1.6,-0.72511 0.88,-0.23012 1.6,-0.0921 1.6,0.3067 0,0.3988 -0.72,0.7251 -1.6,0.7251 -0.88,0 -1.6,-0.13801 -1.6,-0.30669 z M 155.85,262.65351 c 0.5775,-0.2311 1.2675,-0.20268 1.53333,0.0632 0.26583,0.26583 -0.20667,0.45491 -1.05,0.42017 -0.93195,-0.0384 -1.12152,-0.22795 -0.48333,-0.48333 z m 19.92994,-0.0275 c 1.73394,-0.31991 1.78642,-0.6424 2.03047,-12.47719 L 178.06093,238 l -0.0305,12.4 -0.0305,12.4 -2,0.0772 c -1.69886,0.0656 -1.73199,0.0277 -0.22006,-0.25121 z m 13.37062,-0.46635 c -0.21958,-0.5722 -0.28689,-5.8822 -0.14959,-11.8 L 189.2506,239.6 l 0.1747,11.34134 c 0.15467,10.04157 0.33514,11.38327 1.5747,11.7072 1.31207,0.34288 1.31049,0.37169 -0.0251,0.45866 -0.78381,0.051 -1.60476,-0.37536 -1.82433,-0.94756 z M 199,262.67018 c 0.54999,-0.22193 1.44999,-0.22193 1.99999,0 0.55,0.22193 0.1,0.4035 -1,0.4035 -1.09999,0 -1.54999,-0.18157 -0.99999,-0.4035 z m 22.39999,0 c 0.55,-0.22193 1.45,-0.22193 2,0 0.55,0.22193 0.1,0.4035 -1,0.4035 -1.1,0 -1.55,-0.18157 -1,-0.4035 z m 8,-0.0559 c 1.87,-0.16843 4.93,-0.16843 6.8,0 1.87,0.16842 0.34,0.30623 -3.4,0.30623 -3.74,0 -5.27,-0.13781 -3.4,-0.30623 z M 248.97816,250.2 l 0.17816,-13 0.24188,12.5452 c 0.21368,11.08316 0.40269,12.58739 1.62183,12.9072 1.01413,0.26603 0.90277,0.3866 -0.42004,0.4548 l -1.8,0.0928 z m 11.25104,12.40794 c 2.54607,-0.15924 6.50607,-0.15777 8.8,0.003 2.29394,0.16104 0.21079,0.29133 -4.62921,0.28953 -4.84,-0.002 -6.71685,-0.13357 -4.17079,-0.29281 z M 274.57816,250.2 l 0.17816,-13 0.24187,12.5452 c 0.21369,11.08316 0.4027,12.58739 1.62184,12.9072 1.01413,0.26603 0.90277,0.3866 -0.42004,0.4548 l -1.8,0.0928 z m 15.2002,12.49957 c 1.20415,-0.35692 1.41085,-1.84254 1.63538,-11.75406 l 0.25701,-11.34551 -0.0354,11.59001 c -0.0335,10.9888 -0.11837,11.59852 -1.63538,11.75406 -1.20302,0.12336 -1.25801,0.0627 -0.22163,-0.2445 z m 22.07163,-0.0461 c 0.5775,-0.2311 1.2675,-0.20268 1.53334,0.0632 0.26583,0.26583 -0.20667,0.45491 -1.05,0.42017 -0.93196,-0.0384 -1.12152,-0.22795 -0.48334,-0.48333 z m 54.4,0 c 0.5775,-0.2311 1.2675,-0.20268 1.53333,0.0632 0.26584,0.26583 -0.20666,0.45491 -1.05,0.42017 -0.93195,-0.0384 -1.12152,-0.22795 -0.48333,-0.48333 z M 379.37816,250.2 l 0.17816,-13 0.24187,12.5452 c 0.21368,11.08316 0.4027,12.58739 1.62184,12.9072 1.01412,0.26603 0.90277,0.3866 -0.42004,0.4548 l -1.8,0.0928 z m 16.29325,12.31557 c -0.23265,-0.37644 0.46611,-0.51448 1.55279,-0.30674 1.08668,0.20773 1.97579,0.51573 1.97579,0.68443 0,0.619 -3.11891,0.28516 -3.52858,-0.37769 z m 4.32858,0.37769 c 0,-0.1687 0.88911,-0.4767 1.97579,-0.68443 1.08668,-0.20774 1.78544,-0.0697 1.55279,0.30674 -0.40967,0.66285 -3.52858,0.99669 -3.52858,0.37769 z m 23.8,-0.22308 c 0.55,-0.22193 1.45,-0.22193 2,0 0.55,0.22193 0.1,0.4035 -1,0.4035 -1.1,0 -1.55,-0.18157 -1,-0.4035 z m 4.8,0 c 0.55,-0.22193 1.45,-0.22193 2,0 0.55,0.22193 0.1,0.4035 -1,0.4035 -1.1,0 -1.55,-0.18157 -1,-0.4035 z m 18.8,-0.0216 c 0.77,-0.20122 2.03,-0.20122 2.8,0 0.77,0.20122 0.14,0.36586 -1.4,0.36586 -1.54,0 -2.17,-0.16464 -1.4,-0.36586 z m 27.966,0.0534 c 1.08502,-0.32262 1.42659,-1.58851 1.66055,-6.15406 l 0.29455,-5.74789 -0.0606,5.99152 c -0.0544,5.38113 -0.22355,6.00807 -1.66055,6.15406 -1.18071,0.11995 -1.24203,0.0561 -0.234,-0.24363 z m 49.59863,2.7e-4 c 1.07641,-0.32018 1.41434,-1.53548 1.6,-5.75407 l 0.23537,-5.34815 3.10542,-0.25458 c 1.70798,-0.14001 3.40125,0.0413 3.76281,0.40281 0.36156,0.36156 -0.92864,0.53124 -2.86711,0.37707 l -3.52449,-0.28031 -0.23831,5.46923 c -0.20878,4.7913 -0.43665,5.48936 -1.83832,5.63158 -1.17828,0.11954 -1.24031,0.0553 -0.23537,-0.24358 z m 16.43537,-0.032 c 0.55,-0.22193 1.45,-0.22193 2,0 0.55,0.22193 0.1,0.4035 -1,0.4035 -1.1,0 -1.55,-0.18157 -1,-0.4035 z m 5.65,-0.0167 c 0.5775,-0.2311 1.2675,-0.20268 1.53333,0.0632 0.26583,0.26583 -0.20667,0.45491 -1.05,0.42017 -0.93195,-0.0384 -1.12152,-0.22795 -0.48333,-0.48333 z m 24.8,0 c 0.5775,-0.2311 1.2675,-0.20268 1.53333,0.0632 0.26583,0.26583 -0.20667,0.45491 -1.05,0.42017 -0.93196,-0.0384 -1.12152,-0.22795 -0.48333,-0.48333 z m 4.15,-0.0535 c 0,-0.33 0.86562,-0.6 1.9236,-0.6 1.05799,0 1.75674,0.27 1.55279,0.6 -0.20395,0.33 -1.06958,0.6 -1.92361,0.6 -0.85403,0 -1.55278,-0.27 -1.55278,-0.6 z m 23.79999,0.0702 c 0.55,-0.22193 1.45,-0.22193 2,0 0.55,0.22193 0.1,0.4035 -1,0.4035 -1.1,0 -1.55,-0.18157 -1,-0.4035 z m 8.8,0 c 0.55,-0.22193 1.45,-0.22193 2,0 0.55,0.22193 0.1,0.4035 -1,0.4035 -1.1,0 -1.55,-0.18157 -1,-0.4035 z m 14.45,-0.0167 c 0.5775,-0.2311 1.2675,-0.20268 1.53334,0.0632 0.26583,0.26583 -0.20667,0.45491 -1.05,0.42017 -0.93196,-0.0384 -1.12152,-0.22795 -0.48334,-0.48333 z m 37.12716,-5.7e-4 c 1.19846,-0.31456 1.40936,-1.72985 1.6253,-10.9072 l 0.24815,-10.54574 0.1747,11 c 0.1739,10.95029 0.16656,10.99958 -1.62531,10.9072 -1.31831,-0.068 -1.43146,-0.18953 -0.42284,-0.45426 z m 17.12617,-0.0858 c -0.2151,-0.34804 0.84365,-0.48866 2.35279,-0.31247 1.50914,0.17618 2.74388,0.46094 2.74388,0.6328 0,0.60207 -4.70953,0.30607 -5.09667,-0.32033 z m 72.4613,0.0882 c 1.08228,-0.28476 1.41333,-1.46563 1.6,-5.7072 l 0.23537,-5.34815 4.60401,-0.0658 4.604,-0.0658 -4.404,0.30568 -4.40401,0.30569 v 5.56007 c 0,5.26017 -0.0971,5.55507 -1.8,5.46728 -1.29804,-0.0669 -1.41945,-0.19293 -0.43537,-0.45185 z M 776.97546,251.8 l 0.17547,-11.4 0.24675,10.94562 c 0.21548,9.55854 0.42134,10.99144 1.62452,11.3072 1.00984,0.26502 0.89709,0.38636 -0.42222,0.45438 -1.79453,0.0925 -1.79947,0.0581 -1.62452,-11.3072 z m 15.20448,10.8524 c 1.21914,-0.31981 1.40816,-1.82404 1.62184,-12.9072 l 0.24187,-12.5452 0.17816,13 0.17817,13 -1.8,-0.0928 c -1.32281,-0.0682 -1.43416,-0.18877 -0.42004,-0.4548 z m 5.7726,-0.48755 c -0.21847,-0.56933 -0.28678,-6.41933 -0.15179,-13 l 0.24543,-11.96485 0.1769,12.54134 c 0.15775,11.18362 0.32846,12.58095 1.5769,12.9072 1.31207,0.34288 1.31049,0.37169 -0.0251,0.45866 -0.78381,0.051 -1.60386,-0.37302 -1.82233,-0.94235 z m 24.98077,0.50182 c -0.29333,-0.29334 -0.53333,-4.99458 -0.53333,-10.44722 0,-7.29006 -0.24444,-9.7628 -0.92361,-9.34306 -0.57224,0.35367 -0.70645,0.21946 -0.35278,-0.35278 1.55376,-2.51404 2.07639,-0.14358 2.07639,9.41773 0,9.17619 0.15774,10.38256 1.4,10.7072 1.1217,0.29313 1.1482,0.38431 0.13333,0.45866 -0.69666,0.051 -1.50666,-0.1472 -1.8,-0.44053 z m 7.31667,-0.0132 c 0.5775,-0.2311 1.2675,-0.20268 1.53333,0.0632 0.26584,0.26583 -0.20666,0.45491 -1.05,0.42017 -0.93195,-0.0384 -1.12152,-0.22795 -0.48333,-0.48333 z m 4.42606,-0.68801 c -0.26055,-0.67898 -0.24925,-1.45898 0.0251,-1.73334 0.27436,-0.27435 0.49883,0.0901 0.49883,0.80988 0,1.1267 1.36297,1.34371 9.8,1.56036 l 9.8,0.25165 -9.82511,0.17297 c -8.22514,0.14481 -9.90225,-0.0281 -10.29883,-1.06152 z m 21.12394,0.70468 c 0.55,-0.22193 1.45,-0.22193 2,0 0.55,0.22193 0.1,0.4035 -1,0.4035 -1.1,0 -1.55,-0.18157 -1,-0.4035 z m 22.3236,-0.0702 c -0.20395,-0.33 0.49481,-0.6 1.55279,-0.6 1.05798,0 1.92361,0.27 1.92361,0.6 0,0.33 -0.69876,0.6 -1.55279,0.6 -0.85403,0 -1.71965,-0.27 -1.92361,-0.6 z m 9.42621,-0.44231 c -0.21998,-0.57327 -0.28692,-5.70327 -0.14876,-11.4 l 0.25122,-10.35769 0.17386,10.94134 c 0.15352,9.66092 0.3377,10.98416 1.57387,11.3072 1.31207,0.34288 1.31049,0.37169 -0.0251,0.45866 -0.78381,0.051 -1.60509,-0.37624 -1.82508,-0.94951 z m 15.03015,0.49471 c 1.21914,-0.31981 1.40815,-1.82404 1.62184,-12.9072 l 0.24187,-12.5452 0.17816,13 0.17817,13 -1.8,-0.0928 c -1.32281,-0.0682 -1.43417,-0.18877 -0.42004,-0.4548 z m 36.1726,-0.48755 c -0.21847,-0.56933 -0.28678,-6.41933 -0.15179,-13 l 0.24543,-11.96485 0.1769,12.54134 c 0.15775,11.18362 0.32846,12.58095 1.5769,12.9072 1.31207,0.34288 1.31049,0.37169 -0.0251,0.45866 -0.78381,0.051 -1.60386,-0.37302 -1.82233,-0.94235 z m 19.86266,0.48076 c 0.77838,-0.20284 1.85838,-0.1895 2.4,0.0296 0.54163,0.21914 -0.0952,0.38509 -1.41522,0.36879 -1.32,-0.0163 -1.76315,-0.1956 -0.98478,-0.39843 z M 243.19999,261.2979 c 0,-0.16613 0.63,-0.79613 1.4,-1.4 1.26885,-0.9951 1.29714,-0.9668 0.30205,0.30204 -1.0451,1.3326 -1.70205,1.75638 -1.70205,1.09796 z m -14.07295,-1.59961 c -0.23251,-0.6059 -0.2861,-2.8559 -0.11909,-5 l 0.30365,-3.89835 0.1442,4.56183 0.14419,4.56182 5,0.28403 5,0.28403 -5.0251,0.15415 c -3.64003,0.11165 -5.14163,-0.14951 -5.44785,-0.94751 z m 29.62351,0.0613 c -0.21957,-0.5722 -0.28688,-5.8822 -0.14959,-11.8 L 258.8506,237.2 l 0.1747,11.36885 0.17469,11.36886 7,0.26664 7,0.26663 -7.0251,0.16451 c -5.14968,0.12059 -7.13169,-0.11323 -7.42434,-0.87585 z M 838.39818,260.2 c -9.9e-4,-0.33 2.60901,-0.50146 5.8,-0.38103 9.96404,0.37606 10.93197,0.71982 2.4018,0.853 -4.51,0.0704 -8.20081,-0.14197 -8.2018,-0.47197 z M 65.599998,259.69796 c 0,-0.16613 0.63,-0.79613 1.4,-1.4 1.268845,-0.9951 1.297141,-0.9668 0.302045,0.30204 -1.045096,1.3326 -1.702045,1.75638 -1.702045,1.09796 z M 73.497954,258.6 c -0.995097,-1.26884 -0.9668,-1.29714 0.302044,-0.30204 0.77,0.60387 1.4,1.23387 1.4,1.4 0,0.65842 -0.656948,0.23464 -1.702044,-1.09796 z m 167.302036,1.09796 c 0,-0.16613 0.63,-0.79613 1.4,-1.4 1.26885,-0.9951 1.29714,-0.9668 0.30205,0.30204 -1.0451,1.3326 -1.70205,1.75638 -1.70205,1.09796 z M 631.09794,258.6 c -0.9951,-1.26884 -0.9668,-1.29714 0.30204,-0.30204 0.77,0.60387 1.4,1.23387 1.4,1.4 0,0.65842 -0.65694,0.23464 -1.70204,-1.09796 z m 89.6,0 c -0.9951,-1.26884 -0.9668,-1.29714 0.30204,-0.30204 0.77,0.60387 1.4,1.23387 1.4,1.4 0,0.65842 -0.65695,0.23464 -1.70204,-1.09796 z M 448.31563,248.4 c 10e-4,-6.16 0.12683,-8.57425 0.27907,-5.365 0.15224,3.20925 0.15122,8.24925 -0.002,11.2 -0.15349,2.95075 -0.27804,0.325 -0.2768,-5.835 z m 231.2,0 c 10e-4,-6.16 0.12683,-8.57425 0.27906,-5.365 0.15224,3.20925 0.15122,8.24925 -0.002,11.2 -0.15349,2.95075 -0.27805,0.325 -0.2768,-5.835 z M 75.897954,257 c -0.995097,-1.26884 -0.9668,-1.29714 0.302044,-0.30204 0.77,0.60387 1.4,1.23387 1.4,1.4 0,0.65842 -0.656948,0.23464 -1.702044,-1.09796 z m 135.302036,0.6 -7.6,-0.49373 7.35279,-0.15314 c 4.21296,-0.0877 7.56392,0.18849 7.84721,0.64687 0.27194,0.44 0.38319,0.73109 0.24722,0.64687 -0.13597,-0.0842 -3.66722,-0.37532 -7.84722,-0.64687 z M 633.49794,257 c -0.9951,-1.26884 -0.9668,-1.29714 0.30204,-0.30204 0.77,0.60387 1.4,1.23387 1.4,1.4 0,0.65842 -0.65694,0.23464 -1.70204,-1.09796 z m 89.6,0 c -0.9951,-1.26884 -0.9668,-1.29714 0.30204,-0.30204 1.3326,1.04509 1.75638,1.70204 1.09796,1.70204 -0.16613,0 -0.79613,-0.63 -1.4,-1.4 z m -698.097941,0.012 c 2.09,-0.1648 5.51,-0.1648 7.6,0 2.09,0.1648 0.38,0.29963 -3.8,0.29963 -4.18,0 -5.89,-0.13483 -3.8,-0.29963 z m 383.999991,0 c 2.09,-0.1648 5.51,-0.1648 7.6,0 2.09,0.1648 0.38,0.29963 -3.8,0.29963 -4.18,0 -5.89,-0.13483 -3.8,-0.29963 z m 176,0 c 2.09,-0.1648 5.51,-0.1648 7.6,0 2.09,0.1648 0.38,0.29963 -3.8,0.29963 -4.18,0 -5.89,-0.13483 -3.8,-0.29963 z m 279.99999,0 c 2.09,-0.1648 5.51,-0.1648 7.6,0 2.09,0.1648 0.38,0.29963 -3.8,0.29963 -4.18,0 -5.89,-0.13483 -3.8,-0.29963 z m -393.73683,-1.47864 c 0.0384,-0.93195 0.22795,-1.12152 0.48333,-0.48333 0.2311,0.5775 0.20267,1.2675 -0.0632,1.53333 -0.26583,0.26584 -0.45491,-0.20666 -0.42017,-1.05 z M 129.90541,246.8 c 0.002,-5.28 0.13105,-7.33589 0.28772,-4.56865 0.15666,2.76724 0.15537,7.08724 -0.003,9.6 -0.15824,2.51276 -0.28642,0.24865 -0.28484,-5.03135 z m -103.684264,7.8132 c 1.88163,-0.16899 4.76163,-0.16662 6.4,0.005 1.638369,0.1719 0.09885,0.31017 -3.421147,0.30726 -3.52,-0.003 -4.860484,-0.14355 -2.978853,-0.31255 z M 205.32244,254.6 c -0.20459,-0.33 1.48416,-0.49714 3.75279,-0.37142 7.35627,0.40765 8.25151,0.72905 2.37198,0.85155 -3.16403,0.0659 -5.92018,-0.15013 -6.12477,-0.48013 z m 203.47755,0.10871 c 4.78528,-0.60188 10.40095,-0.66058 10.4005,-0.10871 -2.8e-4,0.33 -2.7905,0.54606 -6.2005,0.48013 -3.41,-0.0659 -5.3,-0.23306 -4.2,-0.37142 z m 177.42114,-0.0955 c 1.88163,-0.16899 4.76163,-0.16662 6.4,0.005 1.63837,0.1719 0.0989,0.31017 -3.42114,0.30726 -3.52,-0.003 -4.86049,-0.14355 -2.97886,-0.31255 z m 279.19999,0 c 1.88164,-0.16899 4.76164,-0.16662 6.4,0.005 1.63837,0.1719 0.0989,0.31017 -3.42114,0.30726 -3.52,-0.003 -4.86049,-0.14355 -2.97886,-0.31255 z m -481.62113,-3.17779 c 0.99,-0.19068 2.61,-0.19068 3.6,0 0.99,0.19069 0.18,0.3467 -1.8,0.3467 -1.98,0 -2.79,-0.15601 -1.8,-0.3467 z M 652.9263,250.4 c 0,-1.1 0.18158,-1.55 0.40351,-1 0.22193,0.55 0.22193,1.45 0,2 -0.22193,0.55 -0.40351,0.1 -0.40351,-1 z m 3.2,0 c 0,-1.1 0.18158,-1.55 0.40351,-1 0.22193,0.55 0.22193,1.45 0,2 -0.22193,0.55 -0.40351,0.1 -0.40351,-1 z m 86.4,0 c 0,-1.1 0.18158,-1.55 0.40351,-1 0.22193,0.55 0.22193,1.45 0,2 -0.22193,0.55 -0.40351,0.1 -0.40351,-1 z m 3.2,0 c 0,-1.1 0.18158,-1.55 0.40351,-1 0.22193,0.55 0.22193,1.45 0,2 -0.22193,0.55 -0.40351,0.1 -0.40351,-1 z m -206.52631,-0.30204 c 0,-0.16613 0.63,-0.79613 1.4,-1.4 1.26884,-0.9951 1.29714,-0.9668 0.30204,0.30204 -1.0451,1.3326 -1.70204,1.75638 -1.70204,1.09796 z m 224.79999,0 c 0,-0.16613 0.63,-0.79613 1.4,-1.4 1.26885,-0.9951 1.29714,-0.9668 0.30205,0.30204 -1.0451,1.3326 -1.70205,1.75638 -1.70205,1.09796 z M 41.663157,248.33333 c 0.03839,-0.93195 0.227952,-1.12152 0.483333,-0.48333 0.231097,0.5775 0.202676,1.2675 -0.06316,1.53333 -0.265833,0.26584 -0.454912,-0.20666 -0.420175,-1.05 z M 229.04789,244.4 c 0.004,-2.64 0.15384,-3.62355 0.33189,-2.18567 0.17805,1.43788 0.17437,3.59788 -0.008,4.8 -0.18254,1.20212 -0.32822,0.0257 -0.32373,-2.61433 z m 247.99183,0.4 c 0,-2.42 0.14997,-3.41 0.33327,-2.2 0.1833,1.21 0.1833,3.19 0,4.4 -0.1833,1.21 -0.33327,0.22 -0.33327,-2.2 z m 49.6,0 c 0,-2.42 0.14997,-3.41 0.33327,-2.2 0.1833,1.21 0.1833,3.19 0,4.4 -0.1833,1.21 -0.33327,0.22 -0.33327,-2.2 z m 224.79999,0 c 0,-2.42 0.14997,-3.41 0.33327,-2.2 0.1833,1.21 0.1833,3.19 0,4.4 -0.1833,1.21 -0.33327,0.22 -0.33327,-2.2 z m 160.56027,-0.30204 c 0,-0.16613 0.63,-0.79613 1.4,-1.4 1.26884,-0.9951 1.29714,-0.9668 0.30204,0.30204 -1.04509,1.3326 -1.70204,1.75638 -1.70204,1.09796 z M 929.12397,243 l -1.52399,-1.8 1.8,1.52399 c 1.69155,1.43217 2.16419,2.07601 1.52399,2.07601 -0.15181,0 -0.96181,-0.81 -1.8,-1.8 z M 45.199999,241.6 c 0.796389,-0.88 1.62798,-1.6 1.84798,-1.6 0.22,0 -0.251591,0.72 -1.04798,1.6 -0.796389,0.88 -1.62798,1.6 -1.84798,1.6 -0.22,0 0.251591,-0.72 1.04798,-1.6 z m 20.723989,-0.2 -1.52399,-1.8 1.8,1.52399 c 1.691556,1.43217 2.164193,2.07601 1.52399,2.07601 -0.151805,0 -0.961805,-0.81 -1.8,-1.8 z m 473.973952,-1.2 c -0.99509,-1.26884 -0.9668,-1.29714 0.30205,-0.30204 1.33259,1.04509 1.75638,1.70204 1.09795,1.70204 -0.16612,0 -0.79612,-0.63 -1.4,-1.4 z m -339.03479,-1.46667 c 0.0384,-0.93195 0.22796,-1.12152 0.48334,-0.48333 0.23109,0.5775 0.20267,1.2675 -0.0632,1.53333 -0.26584,0.26584 -0.45491,-0.20666 -0.42018,-1.05 z m 78.4,0 c 0.0384,-0.93195 0.22795,-1.12152 0.48333,-0.48333 0.2311,0.5775 0.20268,1.2675 -0.0632,1.53333 -0.26584,0.26584 -0.45492,-0.20666 -0.42018,-1.05 z m 509.59999,0 c 0.0384,-0.93195 0.22795,-1.12152 0.48333,-0.48333 0.2311,0.5775 0.20268,1.2675 -0.0632,1.53333 -0.26583,0.26584 -0.45491,-0.20666 -0.42017,-1.05 z m 45.6,0 c 0.0384,-0.93195 0.22795,-1.12152 0.48333,-0.48333 0.2311,0.5775 0.20268,1.2675 -0.0632,1.53333 -0.26583,0.26584 -0.45491,-0.20666 -0.42017,-1.05 z m 64.8,0 c 0.0384,-0.93195 0.22795,-1.12152 0.48333,-0.48333 0.2311,0.5775 0.20267,1.2675 -0.0632,1.53333 -0.26583,0.26584 -0.45491,-0.20666 -0.42017,-1.05 z M 334.99999,218.67018 c 0.55,-0.22193 1.45,-0.22193 2,0 0.55,0.22193 0.1,0.4035 -1,0.4035 -1.1,0 -1.55,-0.18157 -1,-0.4035 z m 54.81523,-0.0246 c 0.77837,-0.20284 1.85837,-0.1895 2.4,0.0296 0.54162,0.21914 -0.0952,0.38509 -1.41523,0.36879 -1.32,-0.0163 -1.76315,-0.1956 -0.98477,-0.39843 z m 63.19999,0 c 0.77838,-0.20284 1.85838,-0.1895 2.4,0.0296 0.54163,0.21914 -0.0952,0.38509 -1.41522,0.36879 -1.32,-0.0163 -1.76315,-0.1956 -0.98478,-0.39843 z m 28.43478,0.008 c 0.5775,-0.2311 1.2675,-0.20268 1.53333,0.0632 0.26583,0.26583 -0.20667,0.45491 -1.05,0.42017 -0.93195,-0.0384 -1.12152,-0.22795 -0.48333,-0.48333 z m 49.95,-0.005 c 0.77,-0.20122 2.03,-0.20122 2.8,0 0.77,0.20122 0.14,0.36586 -1.4,0.36586 -1.54,0 -2.17,-0.16464 -1.4,-0.36586 z m 23.21522,-0.003 c 0.77838,-0.20284 1.85838,-0.1895 2.4,0.0296 0.54163,0.21914 -0.0952,0.38509 -1.41522,0.36879 -1.32,-0.0163 -1.76315,-0.1956 -0.98478,-0.39843 z m 127.98477,0.003 c 0.77,-0.20122 2.03,-0.20122 2.8,0 0.77,0.20122 0.14,0.36586 -1.4,0.36586 -1.54,0 -2.17,-0.16464 -1.4,-0.36586 z M 283.52382,206 c 10e-4,-7.04 0.1234,-9.81291 0.27198,-6.16201 0.14857,3.65089 0.14774,9.41089 -0.002,12.8 -0.14959,3.3891 -0.27115,0.40201 -0.27014,-6.63799 z m 16.53933,11.13333 c 0.0384,-0.93195 0.22795,-1.12152 0.48333,-0.48333 0.2311,0.5775 0.20268,1.2675 -0.0631,1.53333 -0.26584,0.26584 -0.45492,-0.20666 -0.42018,-1.05 z M 412.26895,212.8 c 0,-3.3 0.14122,-4.65 0.31381,-3 0.1726,1.65 0.1726,4.35 0,6 -0.17259,1.65 -0.31381,0.3 -0.31381,-3 z M 521.92382,206 c 10e-4,-7.04 0.1234,-9.81291 0.27197,-6.16201 0.14857,3.65089 0.14774,9.41089 -0.002,12.8 -0.14958,3.3891 -0.27114,0.40201 -0.27013,-6.63799 z m 64.53932,11.13333 c 0.0384,-0.93195 0.22796,-1.12152 0.48334,-0.48333 0.23109,0.5775 0.20267,1.2675 -0.0632,1.53333 -0.26583,0.26584 -0.45491,-0.20666 -0.42018,-1.05 z M 629.12382,206 c 10e-4,-7.04 0.1234,-9.81291 0.27197,-6.16201 0.14857,3.65089 0.14774,9.41089 -0.002,12.8 -0.14959,3.3891 -0.27115,0.40201 -0.27013,-6.63799 z m 36.79408,1.2 c 0,-6.38 0.12424,-8.99 0.27609,-5.8 0.15185,3.19 0.15185,8.41 0,11.6 -0.15185,3.19 -0.27609,0.58 -0.27609,-5.8 z m -330.06791,9.05351 c 0.5775,-0.2311 1.2675,-0.20268 1.53333,0.0632 0.26584,0.26583 -0.20666,0.45491 -1.05,0.42017 -0.93195,-0.0384 -1.12151,-0.22795 -0.48333,-0.48333 z m 54.4,0 c 0.5775,-0.2311 1.2675,-0.20268 1.53333,0.0632 0.26584,0.26583 -0.20666,0.45491 -1.05,0.42017 -0.93195,-0.0384 -1.12152,-0.22795 -0.48333,-0.48333 z m 62.35,0.0167 c 0.55,-0.22193 1.45,-0.22193 2,0 0.55,0.22193 0.1,0.4035 -1,0.4035 -1.1,0 -1.55,-0.18157 -1,-0.4035 z m 28.41522,-0.0246 c 0.77838,-0.20284 1.85838,-0.1895 2.4,0.0296 0.54163,0.21914 -0.0952,0.38509 -1.41522,0.36879 -1.32,-0.0163 -1.76315,-0.1956 -0.98478,-0.39843 z m 50.83478,0.008 c 0.5775,-0.2311 1.2675,-0.20268 1.53333,0.0632 0.26583,0.26583 -0.20667,0.45491 -1.05,0.42017 -0.93195,-0.0384 -1.12152,-0.22795 -0.48333,-0.48333 z m 23.2,0 c 0.5775,-0.2311 1.2675,-0.20268 1.53333,0.0632 0.26583,0.26583 -0.20667,0.45491 -1.05,0.42017 -0.93195,-0.0384 -1.12152,-0.22795 -0.48333,-0.48333 z m 127.94999,0.0167 c 0.55,-0.22193 1.45,-0.22193 2,0 0.55,0.22193 0.1,0.4035 -1,0.4035 -1.1,0 -1.55,-0.18157 -1,-0.4035 z m -377.86575,-4.86617 0.0658,-4.60401 6.4,-0.0485 6.4,-0.0485 -6.16102,0.28019 -6.16102,0.2802 -0.30474,4.37228 -0.30474,4.37228 z M 463.59999,214.4 c 0.79639,-0.88 1.62798,-1.6 1.84798,-1.6 0.22,0 -0.25159,0.72 -1.04798,1.6 -0.79639,0.88 -1.62798,1.6 -1.84798,1.6 -0.22,0 0.25159,-0.72 1.04798,-1.6 z m 7.49795,0.2 c -0.99509,-1.26884 -0.9668,-1.29714 0.30205,-0.30204 1.3326,1.04509 1.75638,1.70204 1.09795,1.70204 -0.16612,0 -0.79612,-0.63 -1.4,-1.4 z m 177.5152,-6.79816 c 0.38693,-13.43634 0.69639,-14.75909 0.84265,-3.60184 0.0793,6.05 -0.12581,11.00083 -0.45581,11.00184 -0.33,0.001 -0.50408,-3.32899 -0.38684,-7.4 z m -188.61315,6.29612 c 0,-0.16613 0.63,-0.79613 1.4,-1.4 1.26884,-0.9951 1.29714,-0.9668 0.30204,0.30204 -1.04509,1.3326 -1.70204,1.75638 -1.70204,1.09796 z M 563.50252,202.4 c 0,-5.06 0.1299,-7.13 0.28866,-4.6 0.15876,2.53 0.15876,6.67 0,9.2 -0.15876,2.53 -0.28866,0.46 -0.28866,-4.6 z m -93.03937,3.53333 c 0.0384,-0.93195 0.22795,-1.12152 0.48333,-0.48333 0.2311,0.5775 0.20267,1.2675 -0.0632,1.53333 -0.26583,0.26584 -0.45491,-0.20666 -0.42017,-1.05 z m -165.33874,-2.24181 c -0.23395,-0.60966 -0.28554,-2.67966 -0.11465,-4.6 0.30956,-3.47869 0.31121,-3.47621 0.45047,0.67613 l 0.13976,4.16764 6.6,0.26952 6.6,0.26952 -6.62511,0.16283 c -5.02217,0.12344 -6.72802,-0.10535 -7.05047,-0.94564 z M 489.49794,198.6 c -0.99509,-1.26884 -0.9668,-1.29714 0.30205,-0.30204 0.77,0.60387 1.4,1.23387 1.4,1.4 0,0.65842 -0.65695,0.23464 -1.70205,-1.09796 z m -47.89795,-0.50204 c 0,-0.16613 0.63,-0.79613 1.4,-1.4 1.26884,-0.9951 1.29714,-0.9668 0.30204,0.30204 -1.04509,1.3326 -1.70204,1.75638 -1.70204,1.09796 z M 491.89794,197 c -0.99509,-1.26884 -0.9668,-1.29714 0.30205,-0.30204 1.3326,1.04509 1.75638,1.70204 1.09795,1.70204 -0.16612,0 -0.79612,-0.63 -1.4,-1.4 z m 161.7652,-2.26667 c 0.0384,-0.93195 0.22795,-1.12152 0.48333,-0.48333 0.2311,0.5775 0.20268,1.2675 -0.0632,1.53333 -0.26584,0.26584 -0.45492,-0.20666 -0.42018,-1.05 z m -316.21315,-1.67982 c 0.5775,-0.2311 1.2675,-0.20268 1.53333,0.0632 0.26584,0.26583 -0.20666,0.45491 -1.05,0.42017 -0.93195,-0.0384 -1.12151,-0.22795 -0.48333,-0.48333 z m 54.4,0 c 0.5775,-0.2311 1.2675,-0.20268 1.53333,0.0632 0.26584,0.26583 -0.20666,0.45491 -1.05,0.42017 -0.93195,-0.0384 -1.12152,-0.22795 -0.48333,-0.48333 z m 63.2,0 c 0.5775,-0.2311 1.2675,-0.20268 1.53333,0.0632 0.26584,0.26583 -0.20666,0.45491 -1.05,0.42017 -0.93195,-0.0384 -1.12152,-0.22795 -0.48333,-0.48333 z M 247.03134,161.00687 c 2.76725,-0.15667 7.08725,-0.15537 9.6,0.003 2.51276,0.15825 0.24865,0.28643 -5.03135,0.28485 -5.28,-0.002 -7.33589,-0.13106 -4.56865,-0.28772 z m 625.18386,0.0387 c 0.77838,-0.20284 1.85838,-0.1895 2.4,0.0296 0.54163,0.21914 -0.0952,0.38509 -1.41522,0.36879 -1.32,-0.0163 -1.76315,-0.1956 -0.98478,-0.39843 z m 9.6,0 c 0.77838,-0.20284 1.85838,-0.1895 2.4,0.0296 0.54163,0.21914 -0.0952,0.38509 -1.41522,0.36879 -1.32,-0.0163 -1.76315,-0.1956 -0.98478,-0.39843 z m -645.96521,-0.7921 c 0.5775,-0.2311 1.2675,-0.20268 1.53334,0.0632 0.26583,0.26583 -0.20667,0.45491 -1.05,0.42017 -0.93196,-0.0384 -1.12152,-0.22795 -0.48334,-0.48333 z m 29.6,0 c 0.5775,-0.2311 1.2675,-0.20268 1.53334,0.0632 0.26583,0.26583 -0.20667,0.45491 -1.05,0.42017 -0.93196,-0.0384 -1.12152,-0.22795 -0.48334,-0.48333 z m 597.54999,0.0167 c 0.55,-0.22193 1.45,-0.22193 2,0 0.55,0.22193 0.1,0.4035 -1,0.4035 -1.1,0 -1.55,-0.18157 -1,-0.4035 z m 28,0 c 0.55,-0.22193 1.45,-0.22193 2,0 0.55,0.22193 0.1,0.4035 -1,0.4035 -1.1,0 -1.55,-0.18157 -1,-0.4035 z m -33.55,-0.81667 c 0.5775,-0.2311 1.2675,-0.20268 1.53333,0.0632 0.26584,0.26583 -0.20666,0.45491 -1.05,0.42017 -0.93195,-0.0384 -1.12152,-0.22795 -0.48333,-0.48333 z M 13.183107,88 c 0,-39.38 0.09751,-55.49 0.216682,-35.8 0.119176,19.69 0.119176,51.91 0,71.6 -0.119175,19.69 -0.216682,3.58 -0.216682,-35.8 z m 226.666883,66.65351 c 0.5775,-0.2311 1.2675,-0.20268 1.53334,0.0632 0.26583,0.26583 -0.20667,0.45491 -1.05,0.42017 -0.93196,-0.0384 -1.12152,-0.22795 -0.48334,-0.48333 z m 25.6,0 c 0.5775,-0.2311 1.2675,-0.20268 1.53334,0.0632 0.26583,0.26583 -0.20667,0.45491 -1.05,0.42017 -0.93196,-0.0384 -1.12152,-0.22795 -0.48334,-0.48333 z m 4.8,-0.8 c 0.5775,-0.2311 1.2675,-0.20268 1.53334,0.0632 0.26583,0.26583 -0.20667,0.45491 -1.05,0.42017 -0.93196,-0.0384 -1.12152,-0.22795 -0.48334,-0.48333 z M 811.19998,138 c -1.94322,-1.98 -3.35313,-3.6 -3.13313,-3.6 0.22,0 1.98991,1.62 3.93313,3.6 1.94322,1.98 3.35313,3.6 3.13313,3.6 -0.22,0 -1.98991,-1.62 -3.93313,-3.6 z m 109.6,3.34967 c 0,-0.13768 1.17,-1.30768 2.6,-2.6 l 2.6,-2.34967 -2.34968,2.6 c -2.19022,2.42356 -2.85032,2.96772 -2.85032,2.34967 z M 445.05754,126.60035 c 13.56165,-0.123 35.52165,-0.12292 48.8,1.8e-4 13.27834,0.12311 2.18245,0.22374 -24.65755,0.22364 -26.84,-10e-5 -37.7041,-0.10082 -24.14245,-0.22382 z m 495.00559,-20.66702 c 0.0384,-0.93195 0.22796,-1.12152 0.48334,-0.48333 0.23109,0.5775 0.20267,1.2675 -0.0632,1.53333 -0.26583,0.26584 -0.45491,-0.20666 -0.42018,-1.05 z M 814.46314,97.933333 c 0.0384,-0.931954 0.22795,-1.121519 0.48333,-0.483333 0.2311,0.5775 0.20268,1.2675 -0.0632,1.533333 -0.26583,0.265834 -0.45491,-0.206666 -0.42017,-1.05 z M 792.21787,92 c 0,-1.98 0.15601,-2.79 0.3467,-1.8 0.19068,0.99 0.19068,2.61 0,3.6 -0.19069,0.99 -0.3467,0.18 -0.3467,-1.8 z m 149.53807,0.4 c 0.0163,-1.32 0.19559,-1.763149 0.39843,-0.984774 0.20283,0.778374 0.18949,1.858374 -0.0296,2.4 C 941.90559,94.356851 941.73963,93.72 941.75594,92.4 Z m 22.37035,-5.2 c 0,-1.1 0.18158,-1.55 0.40351,-1 0.22193,0.55 0.22193,1.45 0,2 -0.22193,0.55 -0.40351,0.1 -0.40351,-1 z M 792.23971,81.6 c 0,-2.42 0.14997,-3.41 0.33327,-2.2 0.1833,1.21 0.1833,3.19 0,4.4 -0.1833,1.21 -0.33327,0.22 -0.33327,-2.2 z m 149.48658,0.8 c 0,-1.1 0.18158,-1.55 0.40351,-1 0.22193,0.55 0.22193,1.45 0,2 -0.22193,0.55 -0.40351,0.1 -0.40351,-1 z M 814.46314,74.733333 c 0.0384,-0.931954 0.22795,-1.121519 0.48333,-0.483333 0.2311,0.5775 0.20268,1.2675 -0.0632,1.533333 -0.26583,0.265834 -0.45491,-0.206666 -0.42017,-1.05 z m -21.6,-1.6 c 0.0384,-0.931954 0.22795,-1.121519 0.48333,-0.483333 0.2311,0.5775 0.20268,1.2675 -0.0632,1.533333 -0.26583,0.265834 -0.45491,-0.206666 -0.42017,-1.05 z m 169.59999,-1.6 c 0.0384,-0.931954 0.22796,-1.121519 0.48334,-0.483333 0.23109,0.5775 0.20267,1.2675 -0.0632,1.533333 -0.26583,0.265834 -0.45491,-0.206666 -0.42018,-1.05 z M 826.39998,42.897956 c 0,-0.166125 0.63,-0.796125 1.4,-1.4 1.26884,-0.995097 1.29714,-0.9668 0.30204,0.302044 -1.04509,1.332598 -1.70204,1.756383 -1.70204,1.097956 z M 204.39999,39.2 c 0.79639,-0.88 1.62798,-1.6 1.84798,-1.6 0.22,0 -0.25159,0.72 -1.04798,1.6 -0.79638,0.88 -1.62798,1.6 -1.84798,1.6 -0.22,0 0.2516,-0.72 1.04798,-1.6 z M 185.6,37.2 c 1.49262,-1.54 2.89386,-2.8 3.11386,-2.8 0.22,0 -0.82124,1.26 -2.31386,2.8 -1.49263,1.54 -2.89387,2.8 -3.11387,2.8 -0.22,0 0.82124,-1.26 2.31387,-2.8 z m 738.35691,-0.2 -2.75693,-3 3,2.756933 C 926.99231,39.323027 927.56781,40 926.95691,40 c -0.13369,0 -1.48369,-1.35 -3,-3 z m 20.40542,-0.4 -3.16235,-3.4 3.4,3.162358 c 1.87,1.739297 3.4,3.269297 3.4,3.4 0,0.605262 -0.69668,-3.92e-4 -3.63765,-3.162358 z M 308.69795,33 c -0.9951,-1.268844 -0.9668,-1.297141 0.30204,-0.302044 0.77,0.603875 1.4,1.233875 1.4,1.4 0,0.658427 -0.65695,0.234642 -1.70204,-1.097956 z M 607.45356,22.600749 c 9.15946,-0.128445 23.91946,-0.128276 32.8,3.76e-4 8.88053,0.128652 1.38642,0.233743 -16.65358,0.233536 -18.04,-2.07e-4 -25.30589,-0.105467 -16.14642,-0.233912 z m 86.4,0 c 9.15946,-0.128445 23.91946,-0.128276 32.8,3.76e-4 8.88053,0.128652 1.38642,0.233743 -16.65358,0.233536 -18.04,-2.07e-4 -25.30589,-0.105467 -16.14642,-0.233912 z m 195.59642,-1.54724 c 0.5775,-0.231097 1.2675,-0.202676 1.53333,0.06316 0.26583,0.265833 -0.20667,0.454912 -1.05,0.420175 -0.93195,-0.03839 -1.12152,-0.227952 -0.48333,-0.483333 z m -623.19999,-5.6 c 0.5775,-0.231097 1.2675,-0.202676 1.53334,0.06316 0.26583,0.265833 -0.20667,0.454912 -1.05,0.420175 -0.93196,-0.03839 -1.12152,-0.227952 -0.48334,-0.483333 z m 595.94999,0.01667 c 0.55,-0.221929 1.45,-0.221929 2,0 0.55,0.22193 0.1,0.403509 -1,0.403509 -1.1,0 -1.55,-0.181579 -1,-0.403509 z m 30.45,-0.01667 c 0.5775,-0.231097 1.2675,-0.202676 1.53333,0.06316 0.26583,0.265833 -0.20667,0.454912 -1.05,0.420175 -0.93195,-0.03839 -1.12152,-0.227952 -0.48333,-0.483333 z M 247.79999,14.610206 c 2.31,-0.161602 6.09,-0.161602 8.4,0 2.31,0.161602 0.42,0.293822 -4.2,0.293822 -4.62,0 -6.51,-0.13222 -4.2,-0.293822 z m 622.81099,0.01573 c 1.21605,-0.183883 3.01605,-0.178969 4,0.01092 0.98395,0.18989 -0.011,0.34034 -2.211,0.334334 -2.2,-0.006 -3.00505,-0.16137 -1.789,-0.345254 z m 12,0 c 1.21605,-0.183883 3.01605,-0.178969 4,0.01092 0.98395,0.18989 -0.011,0.34034 -2.211,0.334334 -2.2,-0.006 -3.00505,-0.16137 -1.789,-0.345254 z"
         id="path3" />
      <path
         style="fill:#333333;fill-opacity:1"
         d="m 338.39999,254 c 0,-14.75556 0.17054,-17.2 1.2,-17.2 1.02946,0 1.2,2.44444 1.2,17.2 0,14.75556 -0.17054,17.2 -1.2,17.2 -1.02946,0 -1.2,-2.44444 -1.2,-17.2 z m 360.79999,0 c 0,-14.75556 0.17055,-17.2 1.2,-17.2 1.02946,0 1.2,2.44444 1.2,17.2 0,14.75556 -0.17054,17.2 -1.2,17.2 -1.02945,0 -1.2,-2.44444 -1.2,-17.2 z m -648.399981,7.99839 c -8.557441,-3.02553 -11.432248,-13.43558 -5.464105,-19.78623 5.681564,-6.04571 15.581981,-6.19431 21.003556,-0.31526 1.638975,1.77727 1.725356,2.1031 0.557556,2.1031 -0.760041,0 -2.706363,-0.9 -4.325158,-2 -5.669701,-3.85266 -13.701202,-1.93645 -16.48668,3.93351 -1.596575,3.36454 -1.622114,5.49437 -0.101153,8.43558 3.41087,6.5959 12.225504,8.419 17.419531,3.60283 C 64.573188,256.88736 66.328633,256 67.304534,256 h 1.774367 l -1.939451,2.07785 c -4.441104,4.75803 -10.118015,6.12017 -16.339451,3.92054 z m 28.909808,0.0298 c -6.140477,-2.18902 -9.977026,-8.00663 -9.049493,-13.72235 1.688179,-10.40303 17.079708,-14.4327 24.479135,-6.4089 L 97.0789,244 h -1.823966 c -1.003182,0 -2.893556,-0.9 -4.200832,-2 -4.49443,-3.78181 -12.68272,-2.21552 -15.886491,3.03884 -3.227006,5.29247 -1.303498,11.66899 4.285441,14.20646 5.270628,2.39294 10.287113,1.64157 13.303168,-1.99255 1.084437,-1.30667 4.043778,-1.74006 4.043778,-0.5922 0,1.17696 -3.545549,4.03121 -6.585223,5.30127 -3.59867,1.50362 -6.42316,1.52145 -10.504968,0.0663 z m 28.923273,0.42571 c -3.49643,-1.12592 -6.74049,-3.82144 -8.13445,-6.75901 -5.451467,-11.48811 7.57407,-22.38105 19.48502,-16.29485 4.46583,2.28193 6.48428,5.059 6.99953,9.63028 0.49932,4.42996 -1.98833,9.42437 -5.89756,11.84041 -2.93514,1.81402 -9.24462,2.61618 -12.45254,1.58317 z m 9.37509,-2.80572 c 5.75678,-2.40533 7.93425,-10.81693 4.00803,-15.48299 -5.77079,-6.8582 -17.25649,-4.7416 -19.56102,3.60472 -2.38565,8.64011 6.69848,15.57792 15.55299,11.87827 z m 18.24216,2.66988 C 131.29462,260.88421 130.4,258.61707 130.4,247.49211 c 0,-8.25965 0.19803,-9.89211 1.2,-9.89211 1,0 1.2,1.6 1.2,9.6 0,8.49211 0.1823,9.7823 1.57965,11.17965 3.31383,3.31384 9.98441,3.04396 12.78568,-0.51728 1.42843,-1.81596 1.63467,-3.22523 1.63467,-11.17026 0,-7.54854 0.20372,-9.09211 1.2,-9.09211 0.99681,0 1.2,1.55137 1.2,9.16236 0,5.21854 -0.39731,10.03435 -0.92304,11.18819 -1.03896,2.28028 -6.57295,5.28684 -9.52954,5.1773 -1.07108,-0.0397 -3.09477,-0.40411 -4.49709,-0.80983 z m 320.74966,-0.31071 c -1.43,-0.62154 -2.6,-1.46893 -2.6,-1.8831 0,-1.34344 2.03269,-1.57797 4.04031,-0.46617 3.03793,1.68239 6.19821,1.37617 8.38705,-0.81268 3.09481,-3.0948 1.75509,-5.2184 -4.82325,-7.64536 -6.21966,-2.29464 -8.0174,-4.2971 -7.19979,-8.01969 1.04727,-4.76819 9.48094,-7.37251 13.88509,-4.28773 2.29964,1.61073 1.13852,3.31385 -1.35093,1.98153 -2.5503,-1.36487 -6.92333,-1.05883 -8.41449,0.58888 -2.8299,3.127 -1.11064,5.44855 6.00312,8.10616 5.55685,2.07596 6.44546,3.08425 6.12451,6.94928 -0.46062,5.54693 -7.54824,8.31551 -14.05162,5.48888 z m 45.33085,0.4727 c -6.00298,-1.94856 -9.97333,-7.6005 -9.33257,-13.28527 1.37965,-12.24027 18.88622,-15.78783 25.97806,-5.26425 3.50378,5.19925 1.74647,12.90964 -3.77508,16.56364 -3.2122,2.12573 -9.46655,3.09076 -12.87041,1.98588 z m 9.51076,-2.79811 c 6.86927,-3.55223 8.09751,-11.57509 2.58115,-16.86009 -3.40638,-3.26352 -9.65996,-3.7547 -13.61111,-1.06906 -3.3425,2.27194 -4.785,4.87231 -4.79687,8.64725 -0.0236,7.51858 9.00141,12.81147 15.82683,9.2819 z m 124.52529,2.0618 c -10.5694,-4.95607 -11.07869,-17.55185 -0.90874,-22.47504 6.75614,-3.27059 14.70696,-1.29041 18.71818,4.66183 2.30682,3.42309 2.44255,9.04477 0.30308,12.55333 -3.42236,5.6124 -12.02995,8.11205 -18.11252,5.25988 z m 10.80218,-2.12772 c 5.42222,-2.80393 7.37373,-8.05384 4.99378,-13.43412 -4.5414,-10.26658 -20.95688,-6.96252 -20.95688,4.21814 0,7.60266 9.01655,12.80819 15.9631,9.21598 z m 78.79782,2.12772 c -10.5694,-4.95607 -11.07869,-17.55185 -0.90875,-22.47504 6.75615,-3.27059 14.70697,-1.29041 18.71818,4.66183 2.30683,3.42309 2.44255,9.04477 0.30308,12.55333 -3.42236,5.6124 -12.02995,8.11205 -18.11251,5.25988 z m 10.80218,-2.12772 c 5.42222,-2.80393 7.37373,-8.05384 4.99378,-13.43412 -4.5414,-10.26658 -20.95689,-6.96252 -20.95689,4.21814 0,7.60266 9.01656,12.80819 15.96311,9.21598 z m 178.76803,2.06695 c -8.22409,-3.73519 -10.48968,-13.29185 -4.63985,-19.57165 7.42895,-7.975 21.59674,-4.86942 24.36496,5.34079 1.49641,5.51934 -1.73274,11.56638 -7.59935,14.23086 -4.14097,1.88074 -7.98479,1.88074 -12.12576,0 z m 11.61355,-2.34474 c 9.70886,-5.20692 5.72466,-19.32566 -5.45625,-19.3352 -6.19246,-0.005 -11.29442,4.77567 -11.29442,10.5838 0,5.12123 5.58396,10.21321 11.2,10.21321 1.55373,0 4.05153,-0.65782 5.55067,-1.46181 z M 16.825503,261.8 c 0.01403,-0.33 2.459592,-5.82 5.43459,-12.2 4.127942,-8.85254 5.762426,-11.6 6.900916,-11.6 1.137583,0 2.780936,2.75451 6.920619,11.6 2.985835,6.38 5.448946,11.87 5.473581,12.2 0.02463,0.33 -0.58521,0.59221 -1.35521,0.58269 -0.786643,-0.01 -1.925734,-1.14882 -2.6,-2.6 l -1.2,-2.58269 -7.238533,-0.22788 -7.238533,-0.22789 -1.348524,2.82789 c -0.741688,1.55533 -1.894348,2.82788 -2.561467,2.82788 -0.667118,0 -1.201466,-0.27 -1.187439,-0.6 z m 18.374496,-7.31378 c 0,-0.39258 -1.363515,-3.68779 -3.030033,-7.32269 l -3.030034,-6.60889 -2.969966,6.59011 c -1.633482,3.62456 -2.969967,6.91977 -2.969967,7.32268 0,0.40291 2.7,0.73257 6,0.73257 3.3,0 6,-0.3212 6,-0.71378 z M 155.2,249.94686 v -12.45314 l 2.17216,0.25314 c 1.76444,0.20562 3.46883,2.10019 9.08004,10.09318 3.79933,5.41202 7.32186,10.25402 7.82784,10.76 0.69328,0.69328 0.91996,-1.78061 0.91996,-10.04004 0,-9.20889 0.19172,-10.96 1.2,-10.96 1.01505,0 1.2,1.91111 1.2,12.4 v 12.4 l -2.2,-0.0232 c -1.91529,-0.0202 -3.18356,-1.44376 -9.8,-11 L 158,240.4 l -0.22258,11 c -0.18312,9.04989 -0.43131,11 -1.4,11 -0.98614,0 -1.17742,-2.02314 -1.17742,-12.45314 z M 189.6,251.2 V 240 h -4.8 c -3.73334,0 -4.8,-0.26667 -4.8,-1.2 0,-1.00513 1.68888,-1.2 10.4,-1.2 8.71111,0 10.39999,0.19487 10.39999,1.2 0,0.92121 -1.02222,1.2 -4.39999,1.2 H 192 v 11.2 c 0,9.42222 -0.19048,11.2 -1.2,11.2 -1.00953,0 -1.2,-1.77778 -1.2,-11.2 z m 9.00213,10.6 c 0.1631,-0.33 2.76549,-5.91 5.78307,-12.4 3.91441,-8.41882 5.87609,-11.8 6.84609,-11.8 0.88687,0 2.06403,1.59933 3.38576,4.6 1.1144,2.53 3.66967,8.11 5.67837,12.4 3.28964,7.02573 3.49701,7.8 2.08911,7.8 -1.03018,0 -1.96191,-0.95458 -2.73298,-2.8 l -1.16991,-2.8 h -7.25377 -7.25376 l -1.33523,2.8 c -0.82439,1.72876 -1.90874,2.8 -2.83427,2.8 -0.82447,0 -1.36559,-0.27 -1.20248,-0.6 z m 18.19786,-7.70013 c 0,-0.60506 -1.28603,-3.92213 -2.85784,-7.37126 l -2.85785,-6.27114 -3.03302,6.77127 c -1.66815,3.72419 -2.88088,7.04126 -2.69493,7.37126 0.18594,0.33 2.83683,0.6 5.89086,0.6 4.17843,0 5.55278,-0.27229 5.55278,-1.10013 z m 9.6,-4.09987 v -12.4 h 5.94792 c 3.27136,0 6.93202,0.37415 8.13481,0.83145 4.62327,1.75777 5.63401,6.10663 2.24211,9.64701 l -2.07517,2.16601 1.74589,0.55412 c 1.9944,0.633 3.98706,4.6951 3.40153,6.93415 -0.21658,0.82822 -1.29808,2.21717 -2.40333,3.08656 -1.67644,1.31869 -3.25138,1.5807 -9.50164,1.5807 h -7.49212 z m 14.4,9.76996 c 1.37098,-0.68991 2.07649,-1.78688 2.24321,-3.48786 0.39039,-3.98317 -1.40444,-5.0821 -8.30035,-5.0821 h -5.94286 v 4.26667 c 0,2.34666 0.24,4.50666 0.53334,4.8 0.9222,0.9222 9.37462,0.55606 11.46666,-0.49671 z m 0.13701,-12.29395 c 1.90623,-1.72511 1.85592,-3.88309 -0.13701,-5.87601 -1.27179,-1.27179 -2.66666,-1.6 -6.8,-1.6 h -5.2 v 4.4 4.4 h 5.33701 c 3.84348,0 5.74642,-0.37051 6.8,-1.32399 z M 249.59999,250 c 0,-10.48889 0.18495,-12.4 1.2,-12.4 1.01506,0 1.2,1.91111 1.2,12.4 0,10.48889 -0.18494,12.4 -1.2,12.4 -1.01505,0 -1.2,-1.91111 -1.2,-12.4 z m 6.4,0 c 0,-10.38613 0.19133,-12.4 1.17804,-12.4 0.97188,0 1.21688,1.99496 1.4,11.4 l 0.22196,11.4 7,0.23115 c 9.95106,0.32859 8.81113,1.76885 -1.4,1.76885 h -8.4 z m 19.2,0 c 0,-10.48889 0.18495,-12.4 1.2,-12.4 1.01506,0 1.2,1.91111 1.2,12.4 0,10.48889 -0.18494,12.4 -1.2,12.4 -1.01505,0 -1.2,-1.91111 -1.2,-12.4 z m 13.6,1.2 V 240 h -4.4 c -3.37777,0 -4.4,-0.27879 -4.4,-1.2 0,-1.01532 1.8776,-1.19609 12.2,-1.17459 l 12.2,0.0254 3.89597,5.64705 3.89596,5.64706 4.08618,-5.67246 c 2.58094,-3.58289 4.64237,-5.67247 5.59604,-5.67247 1.46171,0 1.46409,0.0702 0.0747,2.2 -0.78934,1.21 -2.99074,4.34203 -4.89201,6.96007 -3.27022,4.50306 -3.45686,5.05377 -3.45686,10.2 0,4.30216 -0.25098,5.43993 -1.2,5.43993 -0.94535,0 -1.2,-1.1195 -1.2,-5.27549 0,-5.19393 -0.0766,-5.38158 -4.95404,-12.13789 -2.72472,-3.77431 -5.09472,-6.44034 -5.26666,-5.92451 -0.19208,0.57629 -2.13757,0.9379 -5.04594,0.9379 h -4.73334 v 11.2 c 0,9.42222 -0.19047,11.2 -1.2,11.2 -1.00952,0 -1.2,-1.77778 -1.2,-11.2 z m 76.8,0 V 240 h -4.8 c -3.73333,0 -4.8,-0.26667 -4.8,-1.2 0,-1.00741 1.73333,-1.2 10.8,-1.2 9.06667,0 10.8,0.19259 10.8,1.2 0,0.93333 -1.06667,1.2 -4.8,1.2 h -4.8 v 11.2 c 0,9.42222 -0.19048,11.2 -1.2,11.2 -1.00952,0 -1.2,-1.77778 -1.2,-11.2 z m 14.4,-1.2 v -12.4 l 5.4,0.001 c 3.5412,8.2e-4 6.36087,0.48273 8.19142,1.4 4.87502,2.44283 5.32534,8.535 0.83284,11.26705 l -2.3328,1.41866 3.15427,4.98868 c 3.57132,5.64827 3.59723,5.72437 1.94902,5.72437 -0.66288,0 -2.82052,-2.52 -4.79475,-5.6 -3.46404,-5.40425 -3.70155,-5.6 -6.79475,-5.6 h -3.20525 v 5.6 c 0,4.44444 -0.24762,5.6 -1.2,5.6 -1.01505,0 -1.2,-1.91111 -1.2,-12.4 z m 13.73701,-2.52399 c 1.90623,-1.72511 1.85591,-3.88309 -0.13701,-5.87601 -1.24444,-1.24444 -2.66667,-1.6 -6.4,-1.6 h -4.8 v 4.4 4.4 h 4.93701 c 3.47128,0 5.37135,-0.39307 6.4,-1.32399 z m 12.12615,2.5379 c 3.87794,-8.37264 6.15101,-12.3906 7.01502,-12.4 0.86294,-0.009 3.0361,3.68954 6.68944,11.38609 6.8269,14.38236 6.48482,13.4 4.66614,13.4 -0.96939,0 -2.03075,-1.03452 -2.87265,-2.8 l -1.33522,-2.8 h -7.06478 -7.06477 l -1.33523,2.8 c -0.84735,1.77692 -1.90149,2.8 -2.885,2.8 -1.35275,0 -0.82043,-1.57471 4.18705,-12.38609 z m 13.33684,4.82484 c 0,-0.42981 -5.6855,-13.5109 -6.0523,-13.92501 -0.32489,-0.3668 -5.05623,10.04325 -5.66249,12.45881 -0.44759,1.78333 -0.31171,1.82745 5.62806,1.82745 3.3477,0 6.08673,-0.16256 6.08673,-0.36125 z m 8.8,-4.83875 v -12.4 h 2.23287 c 1.9615,0 3.14854,1.31258 9.76713,10.8 4.14384,5.94 7.81905,10.8 8.16713,10.8 0.34808,0 0.63287,-4.86 0.63287,-10.8 0,-9.06667 0.19259,-10.8 1.2,-10.8 1.01505,0 1.2,1.91111 1.2,12.4 v 12.4 h -2.34095 c -2.09985,0 -3.10913,-1.10288 -9.8,-10.70887 l -7.45905,-10.70887 -0.22258,10.70887 c -0.20886,10.0492 -0.31974,10.70887 -1.8,10.70887 -1.50205,0 -1.57742,-0.59249 -1.57742,-12.4 z m 46.4,0 v -12.4 h 8.4 c 6.83385,0 8.4,0.21793 8.4,1.16885 0,0.91848 -1.49948,1.21837 -7,1.4 l -7,0.23115 -0.24181,4.2 -0.24181,4.2 h 6.84181 c 5.54827,0 6.84181,0.22688 6.84181,1.2 0,0.97255 -1.28889,1.2 -6.8,1.2 h -6.8 v 5.6 c 0,4.44444 -0.24762,5.6 -1.2,5.6 -1.01506,0 -1.2,-1.91111 -1.2,-12.4 z m 49.6,-0.0821 v -12.4821 l 6.86563,0.2821 c 6.5911,0.27081 6.95898,0.38656 9.2,2.89471 3.04704,3.41025 2.94479,5.33696 -0.46418,8.74593 l -2.79855,2.79854 1.45797,2.12146 c 0.80188,1.1668 2.27059,3.47145 3.26379,5.12145 1.67529,2.78314 1.69991,2.9995 0.34058,2.99315 -0.94907,-0.004 -2.69,-1.99206 -4.94196,-5.64225 l -3.47672,-5.6354 -3.32328,0.24225 -3.32328,0.24225 -0.23656,5.4 c -0.17885,4.08283 -0.52034,5.4 -1.4,5.4 -0.96821,0 -1.16344,-2.09452 -1.16344,-12.48209 z M 538.87355,246.8 c 1.21111,-1.84839 1.21175,-2.15065 0.008,-3.9873 -1.53061,-2.33601 -3.69736,-3.01177 -8.54605,-2.66534 l -3.53583,0.25264 -0.24181,4.2 -0.24181,4.2 h 5.62337 c 5.11547,0 5.74172,-0.18064 6.93381,-2 z m 7.52644,3.2 c 0,-11.80125 0.0761,-12.4 1.57507,-12.4 0.98168,0 3.46144,2.26044 6.58217,6 2.75391,3.3 5.2367,6 5.51731,6 0.28062,0 2.74358,-2.7 5.47324,-6 3.045,-3.68122 5.55996,-6 6.50762,-6 1.45968,0 1.54459,0.68162 1.54459,12.4 0,10.38014 -0.19169,12.4 -1.17678,12.4 -0.96527,0 -1.21691,-1.90524 -1.4,-10.6 l -0.22322,-10.6 -5.11427,6.2 c -2.81285,3.41 -5.35621,6.2 -5.65191,6.2 -0.29571,0 -2.67429,-2.6871 -5.28574,-5.97132 -2.61144,-3.28423 -5.01808,-5.98423 -5.34808,-6 -0.33,-0.0158 -0.6,4.65132 -0.6,10.37132 0,8.71111 -0.19488,10.4 -1.2,10.4 -1.01506,0 -1.2,-1.91111 -1.2,-12.4 z m 30.38707,11.8 c -0.007,-0.33 2.42289,-5.90901 5.4,-12.39781 4.30986,-9.39361 5.71134,-11.7575 6.8773,-11.6 1.03908,0.14036 3.07209,3.65298 7,12.09452 3.04459,6.54319 5.53562,12.03319 5.53562,12.2 0,0.16681 -0.65332,0.30329 -1.45183,0.30329 -0.87157,0 -1.98548,-1.11909 -2.78705,-2.8 l -1.33523,-2.8 h -7.06477 -7.06477 l -1.33523,2.8 c -1.15751,2.42731 -3.73675,3.93083 -3.77404,2.2 z m 18.19531,-7.6 c -2.90049,-7.46026 -5.75376,-13.3405 -6.22772,-12.83457 -0.74761,0.79802 -5.55466,12.15076 -5.55466,13.11834 0,0.39393 2.73851,0.71623 6.08559,0.71623 4.54249,0 5.987,-0.25357 5.69679,-1 z m 13.01761,-3 V 240 h -4.4 c -3.37777,0 -4.4,-0.27879 -4.4,-1.2 0,-1.00513 1.68889,-1.2 10.4,-1.2 8.71112,0 10.4,0.19487 10.4,1.2 0,0.92121 -1.02222,1.2 -4.4,1.2 h -4.4 v 11.2 c 0,10.66667 -0.0762,11.2 -1.6,11.2 -1.5238,0 -1.6,-0.53333 -1.6,-11.2 z m 14.4,-1.2 c 0,-10.48889 0.18495,-12.4 1.2,-12.4 1.01506,0 1.2,1.91111 1.2,12.4 0,10.48889 -0.18494,12.4 -1.2,12.4 -1.01505,0 -1.2,-1.91111 -1.2,-12.4 z m 36.8,0 v -12.4 l 2.2,0.0147 c 1.91225,0.0127 3.18785,1.42533 9.75258,10.8 4.15392,5.93194 7.84392,10.78535 8.2,10.78535 0.35608,0 0.64742,-4.86 0.64742,-10.8 0,-9.06667 0.1926,-10.8 1.2,-10.8 1.01506,0 1.2,1.91111 1.2,12.4 v 12.4 h -2.34912 c -2.10391,0 -3.1113,-1.08559 -9.65088,-10.4 -4.01596,-5.72 -7.63886,-10.4 -8.05088,-10.4 -0.42707,0 -0.74912,4.4709 -0.74912,10.4 0,8.71111 -0.19487,10.4 -1.2,10.4 -1.01505,0 -1.2,-1.91111 -1.2,-12.4 z m 89.6,0 v -12.4 h 5.6791 c 6.51839,0 10.44942,1.48992 11.81005,4.4762 1.32204,2.90156 1.14841,3.91872 -1.13149,6.62823 -1.87884,2.23286 -2.5033,2.44593 -7.8,2.66138 l -5.75766,0.23419 -0.23655,5.4 c -0.17885,4.08283 -0.52034,5.4 -1.4,5.4 -0.96789,0 -1.16345,-2.08425 -1.16345,-12.4 z m 14.80281,-3.09202 c 0.9319,-1.42225 1.04477,-2.40471 0.45461,-3.95696 -0.87906,-2.3121 -3.96157,-3.24393 -9.29262,-2.80914 l -3.1648,0.25812 -0.24181,4.2 -0.2418,4.2 h 5.62336 c 5.02989,0 5.7542,-0.19968 6.86306,-1.89202 z m 13.81977,4.49202 -0.22258,-11 -4.6,-0.23992 c -3.37489,-0.17603 -4.6,-0.54889 -4.6,-1.4 0,-0.95395 1.84796,-1.16008 10.4,-1.16008 8.71111,0 10.4,0.19487 10.4,1.2 0,0.92121 -1.02222,1.2 -4.4,1.2 h -4.4 v 11.2 c 0,9.32678 -0.19693,11.2 -1.17742,11.2 -0.96869,0 -1.21689,-1.95011 -1.4,-11 z m 13.77742,-1.4 c 0,-10.48889 0.18495,-12.4 1.2,-12.4 1.01505,0 1.2,1.91111 1.2,12.4 0,10.48889 -0.18495,12.4 -1.2,12.4 -1.01505,0 -1.2,-1.91111 -1.2,-12.4 z m 7.2,0 c 0,-15.14455 0.4317,-15.49445 7.89596,-6.4 2.70847,3.3 5.19456,6 5.52464,6 0.33009,0 2.75549,-2.69743 5.38978,-5.99428 3.39798,-4.25262 5.31262,-5.99594 6.58962,-6 1.78949,-0.006 1.8,0.0667 1.8,12.39428 0,10.48889 -0.18495,12.4 -1.2,12.4 -1.00513,0 -1.2,-1.68889 -1.2,-10.4 0,-5.72 -0.27,-10.39713 -0.6,-10.39362 -0.33,0.004 -2.91224,2.83955 -5.73832,6.30233 l -5.13832,6.29595 -5.26168,-6.44348 -5.26168,-6.44347 -0.22322,10.54115 c -0.18302,8.64296 -0.43513,10.54114 -1.4,10.54114 -0.98509,0 -1.17678,-2.01986 -1.17678,-12.4 z m 31.2,0 c 0,-10.48889 0.18495,-12.4 1.2,-12.4 1.01505,0 1.2,1.91111 1.2,12.4 0,10.48889 -0.18495,12.4 -1.2,12.4 -1.01505,0 -1.2,-1.91111 -1.2,-12.4 z m 5.6,11.14709 c 0,-0.6891 3.62209,-5.6391 8.0491,-11 l 8.04909,-9.74709 -8.04909,-0.22799 c -6.43225,-0.18219 -8.0491,-0.46341 -8.0491,-1.4 0,-0.96424 1.70188,-1.17201 9.6,-1.17201 8.75102,0 9.6,0.12879 9.6,1.45635 0,0.80099 -3.6,5.81718 -8,11.14709 -4.4,5.32991 -8,9.89455 -8,10.14365 0,0.2491 3.6,0.45291 8,0.45291 4.8,0 8,0.32 8,0.8 0,0.48889 -3.73333,0.8 -9.6,0.8 -8.18018,0 -9.6,-0.1853 -9.6,-1.25291 z M 856.04477,261.8 c 0.0246,-0.33 2.48743,-5.82 5.47288,-12.2 3.39846,-7.2626 5.92611,-11.69706 6.76,-11.85958 1.0078,-0.19642 2.57973,2.3728 6.46002,10.55848 6.26317,13.21248 6.57216,14.1011 4.90328,14.1011 -0.69677,0 -1.87369,-1.27255 -2.61538,-2.82788 l -1.34853,-2.82789 -7.23853,0.22789 -7.23853,0.22788 -1.2,2.58269 c -0.67427,1.45118 -1.81336,2.59027 -2.6,2.6 -0.77,0.01 -1.37985,-0.25269 -1.35521,-0.58269 z m 18.30787,-7.6 c -0.026,-0.55 -1.39064,-3.86608 -3.03244,-7.36907 l -2.98509,-6.36906 -2.96757,6.90781 c -1.63216,3.7993 -2.96756,7.11538 -2.96756,7.36907 0,0.25369 2.7,0.46125 6,0.46125 4.29191,0 5.98652,-0.28468 5.95266,-1 z m 13.46991,-2.8 -0.22257,-11 -4.6,-0.23992 c -3.3749,-0.17603 -4.6,-0.54889 -4.6,-1.4 0,-0.95395 1.84796,-1.16008 10.4,-1.16008 8.71111,0 10.4,0.19487 10.4,1.2 0,0.92121 -1.02222,1.2 -4.4,1.2 h -4.4 v 11.2 c 0,9.32678 -0.19693,11.2 -1.17743,11.2 -0.96868,0 -1.21688,-1.95011 -1.4,-11 z m 13.77743,-1.4 c 0,-10.48889 0.18494,-12.4 1.2,-12.4 1.01505,0 1.2,1.91111 1.2,12.4 0,10.48889 -0.18495,12.4 -1.2,12.4 -1.01506,0 -1.2,-1.91111 -1.2,-12.4 z m 37.6,0 v -12.4 h 1.8881 c 1.51947,0 3.35467,2.10646 9.39999,10.78938 4.13155,5.93416 7.78191,10.79416 8.11191,10.8 0.33,0.006 0.6,-4.84938 0.6,-10.78938 0,-9.06667 0.19259,-10.8 1.2,-10.8 1.01505,0 1.2,1.91111 1.2,12.4 v 12.4 h -2.24742 c -1.97676,0 -3.157,-1.29394 -9.8,-10.74407 l -7.55258,-10.74406 -0.22258,10.74406 c -0.18281,8.82457 -0.43293,10.74407 -1.4,10.74407 -0.98592,0 -1.17742,-2.01678 -1.17742,-12.4 z M 283.99999,206 c 0,-10.48889 0.18495,-12.4 1.2,-12.4 1.00953,0 1.2,1.77778 1.2,11.2 V 216 h 6.8 c 5.51111,0 6.8,0.22745 6.8,1.2 0,0.98667 -1.42222,1.2 -8,1.2 h -8 z m 18.4,0 v -12.4 h 8.4 c 6.93334,0 8.4,0.20952 8.4,1.2 0,0.97829 -1.33798,1.2 -7.24181,1.2 h -7.2418 l 0.2418,4.2 0.24181,4.2 6.6,0.23235 c 3.63,0.1278 6.6,0.56324 6.6,0.96765 0,0.40441 -2.97,0.83985 -6.6,0.96765 l -6.6,0.23235 -0.23992,4.6 -0.23992,4.6 h 7.63992 c 6.25771,0 7.63992,0.2171 7.63992,1.2 0,0.99394 -1.51111,1.2 -8.8,1.2 h -8.8 z m 26,10.58355 c -4.27922,-2.39387 -7.0836,-7.71399 -6.40814,-12.15674 0.58126,-3.8232 3.56234,-7.9477 7.0495,-9.75339 5.35395,-2.77234 14.48934,-1.09466 18.16666,3.33624 1.54586,1.86265 -2.09519,1.55254 -4.56299,-0.38863 -6.31972,-4.97109 -16.53892,-0.92947 -17.59705,6.95951 -0.72292,5.38977 2.74565,10.1862 8.29353,11.46849 5.44407,1.2583 12.25849,-2.18184 12.25849,-6.18848 0,-1.74067 -0.30927,-1.86055 -4.8,-1.86055 -3.73333,0 -4.8,-0.26667 -4.8,-1.2 0,-0.96667 1.24445,-1.2 6.4,-1.2 h 6.4 v 6.4 c 0,5.86667 -0.13333,6.4 -1.6,6.4 -0.88889,0 -1.6,-0.53333 -1.6,-1.2 0,-1.47287 -0.62348,-1.47287 -3.2,0 -3.14459,1.79761 -10.24343,1.48503 -14,-0.61645 z M 354.10457,210.6 c 2.0087,-4.29 4.56396,-9.87 5.67837,-12.4 3.14821,-7.14728 4.11075,-6.55995 10.17921,6.21122 6.26019,13.17469 6.54411,13.98878 4.87881,13.98878 -0.69677,0 -1.86771,-1.26 -2.60208,-2.8 l -1.33523,-2.8 h -7.49265 -7.49265 l -1.16992,2.8 c -0.77106,1.84542 -1.70279,2.8 -2.73297,2.8 -1.40791,0 -1.20053,-0.77427 2.08911,-7.8 z m 15.49542,-0.51378 c 0,-0.17258 -1.39378,-3.32258 -3.0973,-7 l -3.0973,-6.68622 -2.9027,6.29987 c -1.59648,3.46494 -2.9027,6.61494 -2.9027,7 0,0.38507 2.7,0.70013 6,0.70013 3.3,0 6,-0.1412 6,-0.31378 z m 13.2,6.49733 c -4.27922,-2.39387 -7.0836,-7.71399 -6.40814,-12.15674 0.58126,-3.8232 3.56234,-7.9477 7.0495,-9.75339 5.35395,-2.77234 14.48934,-1.09466 18.16666,3.33624 1.54586,1.86265 -2.0952,1.55254 -4.56299,-0.38863 -6.31972,-4.97109 -16.53892,-0.92947 -17.59705,6.95951 -1.1036,8.22789 7.42626,14.20782 15.29886,10.72539 1.89567,-0.83854 3.69438,-1.92542 3.99713,-2.41528 0.30275,-0.48986 1.23791,-0.89065 2.07814,-0.89065 2.4107,0 1.03617,2.18119 -2.78612,4.42121 -4.47904,2.62488 -10.71522,2.69133 -15.23599,0.16234 z m 30,-3.62348 c 0,-5.14623 -0.18664,-5.69694 -3.45686,-10.2 -1.90127,-2.61804 -4.10267,-5.75007 -4.89201,-6.96007 -1.39515,-2.13868 -1.39164,-2.2 0.12586,-2.2 1.02382,0 2.7761,1.78288 5.092,5.18096 1.94206,2.84953 3.73158,5.18953 3.97671,5.2 0.24514,0.0105 2.16386,-2.32096 4.26382,-5.18096 2.53416,-3.45135 4.36662,-5.2 5.44924,-5.2 1.58004,0 1.57065,0.0815 -0.29971,2.6 -8.07705,10.87621 -7.85905,10.41832 -7.85905,16.50718 0,4.52695 -0.24576,5.69282 -1.2,5.69282 -0.94902,0 -1.2,-1.13777 -1.2,-5.43993 z m 33.96034,4.31465 c -3.25562,-1.41806 -6.57866,-5.49276 -7.20581,-8.83573 -1.77645,-9.46928 7.03748,-16.95348 17.35883,-14.73994 4.26084,0.91378 9.33037,4.83681 6.89126,5.33276 -0.76745,0.15605 -2.44716,-0.46521 -3.73267,-1.38058 -3.4673,-2.46893 -6.76157,-2.86352 -10.855,-1.30022 -6.9149,2.64082 -9.07901,10.61698 -4.34387,16.01 3.39224,3.86354 7.77904,5.01836 12.38346,3.25992 1.87958,-0.71782 3.84986,-1.82619 4.3784,-2.46303 0.52853,-0.63685 1.69964,-1.1579 2.60247,-1.1579 1.57878,0 1.56739,0.0793 -0.29796,2.07601 -1.0667,1.14181 -2.91157,2.58181 -4.09972,3.2 -2.70274,1.40624 -9.84958,1.40553 -13.07939,-0.001 z m 27.6587,-0.62455 c -4.65317,-3.15945 -6.61532,-6.77952 -6.23644,-11.50594 0.56715,-7.07512 6.05314,-11.7728 13.74839,-11.7728 12.9456,0 18.77198,14.28952 9.02391,22.13165 -2.58004,2.07559 -3.8629,2.49443 -8.4,2.74253 -4.59613,0.25132 -5.74895,0.0252 -8.13586,-1.59544 z m 11.44401,-0.94139 c 8.74062,-3.65207 9.39977,-15.17854 1.08389,-18.95408 -4.12519,-1.8729 -6.31454,-1.92986 -9.84179,-0.25607 -3.83032,1.8176 -6.17182,5.39778 -6.17182,9.43677 0,4.24361 1.91636,7.12597 6.12176,9.20762 3.93205,1.94635 5.29431,2.03385 8.80796,0.56576 z M 499.19999,206 v -12.4 l 2.2,0.007 c 1.92182,0.006 3.16098,1.39735 9.8,11 l 7.6,10.99261 0.22257,-11 c 0.18312,-9.04989 0.43132,-11 1.4,-11 0.98593,0 1.17743,2.01678 1.17743,12.4 v 12.4 h -1.95234 c -1.59401,0 -3.2971,-1.90912 -9.27917,-10.40172 -4.02976,-5.72094 -7.65121,-10.60219 -8.04766,-10.84721 -0.41424,-0.25601 -0.72083,4.1682 -0.72083,10.40172 0,9.10863 -0.19234,10.84721 -1.2,10.84721 -1.01506,0 -1.2,-1.91111 -1.2,-12.4 z m 27.30249,10.95424 c -1.58231,-1.25769 -1.68879,-1.58831 -0.64103,-1.99038 0.69107,-0.26519 2.30434,0.0406 3.58505,0.67948 4.56687,2.27825 10.46719,-0.69081 9.4474,-4.75396 -0.37912,-1.51054 -1.57746,-2.37726 -5.09481,-3.68494 -7.01903,-2.60952 -8.1991,-3.59675 -8.1991,-6.85925 0,-5.55833 6.3797,-8.91219 12.27067,-6.45078 2.77561,1.15972 3.50076,2.06749 2.47277,3.09547 -0.2511,0.25111 -1.4211,-0.0467 -2.6,-0.66173 -1.17889,-0.61506 -2.96981,-1.12051 -3.97981,-1.12322 -1.83935,-0.005 -5.76363,3.2139 -5.76363,4.72754 0,1.57889 3.24965,3.79099 7.56951,5.1527 6.74565,2.12638 8.67607,6.27998 4.93827,10.62544 -1.6304,1.89545 -2.59896,2.23802 -7,2.47584 -4.08288,0.22063 -5.48853,-0.0266 -7.00529,-1.23221 z m 22.56279,-0.20494 c -3.42892,-2.19659 -4.26528,-5.11211 -4.26528,-14.86868 0,-7.70414 0.10967,-8.28062 1.57537,-8.28062 1.46836,0 1.59064,0.66 1.8,9.7155 0.2219,9.59743 0.25184,9.73579 2.46377,11.38542 3.47584,2.59225 8.28654,2.15299 11.11722,-1.01509 2.1696,-2.42822 2.24364,-2.80102 2.24364,-11.29845 0,-7.27767 0.20616,-8.78738 1.2,-8.78738 0.99426,0 1.2,1.51553 1.2,8.83973 0,9.92816 -0.91368,12.75057 -4.77382,14.74673 -3.37458,1.74506 -9.48644,1.53235 -12.5609,-0.43716 z M 570.39999,206 c 0,-10.48889 0.18494,-12.4 1.2,-12.4 1.00952,0 1.2,1.77778 1.2,11.2 V 216 h 6.8 c 5.51111,0 6.8,0.22745 6.8,1.2 0,0.98667 -1.42223,1.2 -8,1.2 h -8 z m 21.6,1.2 V 196 h -4.8 c -3.73334,0 -4.8,-0.26667 -4.8,-1.2 0,-1.00741 1.73333,-1.2 10.8,-1.2 9.06666,0 10.79999,0.19259 10.79999,1.2 0,0.93333 -1.06666,1.2 -4.8,1.2 h -4.79999 v 11.2 c 0,9.42222 -0.19048,11.2 -1.2,11.2 -1.00953,0 -1.2,-1.77778 -1.2,-11.2 z m 11.70334,5 c 1.57462,-3.41 4.14491,-9.00726 5.71176,-12.43835 4.08562,-8.94671 4.74474,-8.61221 11.50415,5.83835 2.98432,6.38 5.43834,11.87 5.45339,12.2 0.015,0.33 -0.62033,0.6 -1.41193,0.6 -0.91872,0 -1.8055,-1.01273 -2.45179,-2.8 l -1.01249,-2.8 h -7.58904 -7.58904 l -1.16991,2.8 c -0.77324,1.85061 -1.70194,2.8 -2.73898,2.8 -1.44746,0 -1.34717,-0.48054 1.29388,-6.2 z m 16.29665,-2.11378 c 0,-0.17258 -1.39378,-3.32258 -3.0973,-7 l -3.0973,-6.68622 -2.9027,6.29987 c -1.59648,3.46494 -2.9027,6.61494 -2.9027,7 0,0.38507 2.7,0.70013 6,0.70013 3.3,0 6,-0.1412 6,-0.31378 z m 9.6,-4.08622 v -12.4 h 1.96289 c 1.61808,0 3.2693,1.89076 9.4,10.76362 4.09041,5.91999 7.70711,10.77999 8.03711,10.8 0.33,0.02 0.6,-4.82362 0.6,-10.76362 0,-9.06667 0.1926,-10.8 1.2,-10.8 1.01506,0 1.2,1.91111 1.2,12.4 v 12.4 l -2.2,-0.0106 c -1.91737,-0.009 -3.17635,-1.41331 -9.8,-10.92917 l -7.6,-10.91854 -0.22257,10.92917 c -0.18304,8.98752 -0.43175,10.92916 -1.4,10.92916 -0.98593,0 -1.17743,-2.01678 -1.17743,-12.4 z m 33.6,1.2 V 196 h -4.4 c -3.37777,0 -4.4,-0.27879 -4.4,-1.2 0,-1.00513 1.68889,-1.2 10.4,-1.2 8.71111,0 10.4,0.19487 10.4,1.2 0,0.93333 -1.06666,1.2 -4.8,1.2 h -4.8 v 11.2 c 0,9.42222 -0.19047,11.2 -1.2,11.2 -1.00952,0 -1.2,-1.77778 -1.2,-11.2 z m 15.4,10.2236 c -0.99,-0.47745 -1.8,-1.15184 -1.8,-1.49864 0,-1.40583 1.69444,-1.51721 4.1064,-0.26994 3.548,1.83474 8.43616,0.44927 9.20364,-2.60863 0.75268,-2.9989 -0.42727,-4.32961 -5.31106,-5.98966 -7.04356,-2.39418 -9.30782,-5.50447 -7.0683,-9.70932 1.3145,-2.46808 3.02094,-3.57445 6.41837,-4.16137 3.78866,-0.65451 9.1775,1.61557 7.79359,3.28308 -0.73824,0.88952 -1.21835,0.85607 -2.82535,-0.19688 -3.44478,-2.25711 -9.11729,-0.18667 -9.11729,3.32776 0,2.28193 0.9725,3.06837 6.28977,5.08642 5.56275,2.11121 7.31644,3.75724 7.28479,6.83757 -0.0467,4.54638 -3.27231,6.90689 -9.32196,6.82187 -2.11893,-0.0298 -4.6626,-0.4448 -5.6526,-0.92226 z m 193.4,-56.35903 c -19.05022,-1.60886 -29.93551,-4.34769 -43.19792,-10.86897 -7.45951,-3.66793 -9.2961,-5.02699 -16.43597,-12.16248 -5.86421,-5.8606 -8.82274,-9.54761 -10.93949,-13.63312 -5.53433,-10.68173 -7.5211,-17.46421 -8.49721,-29.007905 -4.27448,-50.551295 27.41414,-80.336376 85.47059,-80.336376 30.35438,0 53.52456,8.238201 68.43784,24.333204 8.27422,8.929869 12.95703,18.392385 15.70175,31.728452 2.07581,10.085942 1.68904,26.856443 -0.84139,36.482625 -2.09719,7.97804 -7.68281,19.35765 -12.45639,25.37746 -7.79851,9.83445 -20.6592,18.12011 -35.7081,23.0054 -10.05929,3.26552 -31.69472,5.91265 -41.53371,5.08171 z m 25.5962,-7.94259 c 21.18757,-6.14622 33.91543,-18.41444 40.71586,-39.24551 6.20669,-19.01235 4.8262,-45.165044 -3.24445,-61.464388 -7.89199,-15.938509 -19.33234,-25.024659 -37.34494,-29.660078 -7.83216,-2.015553 -9.01534,-2.107756 -21.99999,-1.714414 -10.45328,0.31666 -14.97909,0.793949 -18.99621,2.003327 -21.82656,6.571022 -35.75791,21.813553 -40.67344,44.501508 -2.23196,10.301751 -2.27525,27.340373 -0.0963,37.899905 7.14029,34.60279 32.30115,52.50796 69.63945,49.5574 4.17791,-0.33015 9.57791,-1.17514 12,-1.87775 z m -665.99619,6.49056 c -15.20857,-2.3859 -29.66542,-8.15622 -40.08765,-16.00062 -16.92729,-12.7405 -26.18747,-35.38738 -24.86565,-60.81192 0.57135,-10.989625 2.73647,-19.43478 7.48555,-29.197765 3.21306,-6.605275 4.75384,-8.655766 11.7951,-15.697026 7.44219,-7.442181 8.84457,-8.460035 17.28596,-12.546222 15.15134,-7.334237 28.48038,-10.160768 47.89149,-10.15577 25.74706,0.0066 44.16016,5.739233 58.01357,18.061536 l 2.31838,2.06214 -2.0127,2.012694 -2.01269,2.012695 -4.79285,-3.528294 C 295.76042,30.775358 286.23793,26.02385 277.96052,23.520215 271.23134,21.484868 269.81207,21.34975 254.39999,21.2772 239.61036,21.207581 237.38794,21.377401 231.7668,23.006657 211.24635,28.9544 198.68897,41.493444 191.51468,63.2 c -2.17689,6.58639 -2.24854,7.340307 -2.28109,24 -0.0274,14.03872 0.22554,18.13794 1.37629,22.3032 6.13377,22.20172 18.379,35.94746 37.85582,42.49464 7.50551,2.52299 8.6809,2.68587 21.74966,3.01409 15.34631,0.38541 20.50946,-0.24079 31.79677,-3.85644 7.01473,-2.24702 19.06546,-8.9273 23.40971,-12.97708 l 1.82184,-1.69836 2.17816,2.20987 2.17815,2.20987 -2.4,2.02318 c -7.23592,6.09981 -17.05786,11.31421 -26.8,14.22795 -11.79464,3.5276 -36.40372,4.72009 -50.8,2.46162 z M 13.6,88 V 16.8 h 9.999999 10 v 68.4 68.4 H 75.599998 117.6 v 2.8 2.8 H 65.599998 13.6 Z m 358.09886,70.2 c 0.32631,-0.55 8.20544,-12.34 17.50918,-26.2 9.30374,-13.86 30.17043,-45 46.37042,-69.2 16.2,-24.2 29.76545,-44.345337 30.14545,-44.767416 0.42299,-0.469832 1.23092,-0.0083 2.08349,1.190175 2.26232,3.180198 91.83467,136.648931 93.28459,139.000221 0.50293,0.81557 -1.59857,0.97776 -10.36513,0.8 L 539.7309,158.8 l -10.87297,-16 -10.87297,-16 -48.99248,-0.20615 c -26.94587,-0.11338 -48.99249,-0.41781 -48.99249,-0.6765 0,-0.2587 0.74451,-1.51593 1.65447,-2.79385 l 1.65448,-2.3235 h 45.14552 c 24.83004,0 45.14553,-0.20876 45.14553,-0.4639 0,-0.25515 -4.08166,-6.46515 -9.07036,-13.8 C 499.54094,99.201244 488.3076,82.58 479.56667,69.6 470.82573,56.62 462.82041,44.74 461.77706,43.2 c -1.04335,-1.54 -2.28269,-2.8 -2.75409,-2.8 -0.47139,0 -17.73001,25.2 -38.35248,56 -20.62246,30.8 -38.56237,57.53 -39.86646,59.4 -2.20362,3.15989 -2.6298,3.4 -6.03477,3.4 -2.71405,0 -3.50991,-0.25921 -3.0704,-1 z M 656.60448,91 l -0.2045,-68.2 -33,-0.208875 -32.99999,-0.208874 V 19.591125 16.8 h 76.39999 76.4 v 2.791125 2.791126 l -33,0.208874 -33,0.208875 -0.20449,68.2 -0.20449,68.2 h -9.99102 -9.99101 z"
         id="path2" />
    </g>
  </g>
</svg>
